<?xml version="1.0" standalone="no"?>
<!DOCTYPE svg PUBLIC "-//W3C//DTD SVG 20010904//EN"
 "http://www.w3.org/TR/2001/REC-SVG-20010904/DTD/svg10.dtd">
<svg version="1.0" xmlns="http://www.w3.org/2000/svg"
 width="260.000000pt" height="260.000000pt" viewBox="0 0 260.000000 260.000000"
 preserveAspectRatio="xMidYMid meet">
<metadata>
Created by potrace 1.11, written by Peter Selinger 2001-2013
</metadata>
<g transform="translate(0.000000,260.000000) scale(0.100000,-0.100000)"
fill="#000000" stroke="none">
<path d="M0 1300 l0 -1300 1300 0 1300 0 0 1300 0 1300 -1300 0 -1300 0 0
-1300z m472 413 l3 -288 330 0 330 0 3 288 2 288 113 -3 112 -3 0 -695 0 -695
-112 -3 -113 -3 0 316 0 315 -332 -2 -333 -3 -3 -312 -2 -313 -110 0 -110 0 0
700 0 700 110 0 110 0 2 -287z m1887 283 c-2 -3 -145 -147 -317 -320 -173
-174 -312 -320 -310 -325 1 -4 41 -50 88 -101 47 -52 157 -173 244 -269 88
-97 202 -222 254 -278 l94 -103 -159 0 -158 0 -185 216 c-102 119 -189 222
-195 228 -47 54 -136 158 -159 186 -15 19 -46 54 -67 77 l-39 42 22 24 c13 12
93 97 178 187 85 91 189 201 231 245 42 44 101 106 129 138 l53 57 150 0 c83
0 148 -2 146 -4z"/>
</g>
</svg>
